<svg width="28" height="20" viewBox="0 0 28 20" fill="none" xmlns="http://www.w3.org/2000/svg">
<g clip-path="url(#clip0_22_223)">
<path fill-rule="evenodd" clip-rule="evenodd" d="M12.4444 20H15.5556C16.4111 20 17.1111 19.25 17.1111 18.3333C17.1111 17.4167 16.4111 16.6667 15.5556 16.6667H12.4444C11.5889 16.6667 10.8889 17.4167 10.8889 18.3333C10.8889 19.25 11.5889 20 12.4444 20ZM0 1.66667C0 2.58333 0.7 3.33333 1.55556 3.33333H26.4444C27.3 3.33333 28 2.58333 28 1.66667C28 0.75 27.3 0 26.4444 0H1.55556C0.7 0 0 0.75 0 1.66667ZM6.22222 11.6667H21.7778C22.6333 11.6667 23.3333 10.9167 23.3333 10C23.3333 9.08333 22.6333 8.33333 21.7778 8.33333H6.22222C5.36667 8.33333 4.66667 9.08333 4.66667 10C4.66667 10.9167 5.36667 11.6667 6.22222 11.6667Z" fill="#CCCCCC"/>
</g>
<defs>
<clipPath id="clip0_22_223">
<rect width="28" height="20" fill="white"/>
</clipPath>
</defs>
</svg>
