<svg width="64" height="64" viewBox="0 0 64 64" fill="none" xmlns="http://www.w3.org/2000/svg">
<path d="M32 4C16.6 4 4 16.6 4 32C4 47.4 16.6 60 32 60C47.4 60 60 47.4 60 32C60 16.6 47.4 4 32 4ZM44 42H20C18.8 42 18 41.2 18 40C18 38.8 18.8 38 20 38H44C45.2 38 46 38.8 46 40C46 41.2 45.2 42 44 42ZM44 34H20C18.8 34 18 33.2 18 32C18 30.8 18.8 30 20 30H44C45.2 30 46 30.8 46 32C46 33.2 45.2 34 44 34ZM44 26H20C18.8 26 18 25.2 18 24C18 22.8 18.8 22 20 22H44C45.2 22 46 22.8 46 24C46 25.2 45.2 26 44 26Z" fill="white"/>
</svg>
